<?xml version="1.0" encoding="utf-8"?>
<!-- Generator: Adobe Illustrator 27.1.0, SVG Export Plug-In . SVG Version: 6.00 Build 0)  -->
<svg version="1.1" id="Capa_1" xmlns:v="https://svgstorm.com"
	 xmlns="http://www.w3.org/2000/svg" xmlns:xlink="http://www.w3.org/1999/xlink" x="0px" y="0px" viewBox="0 0 785.1 785.1"
	 style="enable-background:new 0 0 785.1 785.1;" xml:space="preserve">
<style type="text/css">
	.st0{fill:#233D72;stroke:#233D72;stroke-width:0.3;}
	.st1{fill:#233D72;stroke:#233D72;stroke-miterlimit:10;}
</style>
<g>
	<path class="st0" d="M261.3,437.9c0.9-17-0.8-34,0-51s-1.1-35.2,0-52s-2.1-35.6,0-52s-5-36.4,1-51c0.2-1-0.4-2.7,1-3
		c7.3,12.1,25.6,12,26,28s-0.8,36.2,0,53s-1.5,36,0,53s-3.4,36.3,0,53c1.6,8,8.9,12.4,16,14c2.2,0.2,4.8,0.2,7,0
		c14.3-3.2,17.2-13.9,16-28s0.9-29.8,0-44s1.1-30.1,0-44s2.1-30.8,0-44s5.5-31.1-2-42c-9.8-8.4-22.7-18.6-32.2-26.8
		c-9.6-8.2-24.2-18.6-32.7-26.3c-8.4-7.8-27.3-27.3-36.2-12s-0.9,38.1-2.9,56.1s0.7,39.4,0,58s-0.2,40.4,0,59s-1.2,40,0,58
		s-5,39.5,4.8,54.2C236.7,462.9,260.4,453.1,261.3,437.9z"/>
</g>
<g>
	<path class="st0" d="M449.3,234.9c-2.1,17,0.8,34.8,0,52s0.1,34.8,0,52s-0.6,34.9,0,52s-1.6,35.1,0,52s-3.8,35.6,0,52
		c10.9,13.8,24.7,26.6,38,38c0-2.3,0-4.7,0-7c0.2-7.3,0-14.7,0-22c0-13.3,0-26.7,0-40c0-22.7,0-45.3,0-68c0-32.3,0-64.7,0-97
		c-1.2-10.7,1.6-22.5,0-33s1.6-17.3,9.8-22.2c8.2-4.9,9.7-10.7,18.2-13.8c0,19.5,0,39.6,0,59s0,38.8,0,58s-0.1,39,0,58
		s-0.2,39.4,0,58s-0.4,40.4,0,58c0.4,17.6-4.4,38.5,8.2,49.8c12.6,11.3,16.8,18.9,29.8,28.2c1.8-121.5,1-244.1,1-366
		c-2-20.5,0.6-42.9-1-64c-4.2-22.5-27-4.7-36.3,5.7c-9.4,10.3-26,18.3-35.5,28.5C472.1,213.3,452.7,221,449.3,234.9z"/>
</g>
<g>
	<path class="st0" d="M554.3,232.9c0-20.6,2.7-44.4-1-64C554.9,190,552.3,212.4,554.3,232.9z"/>
</g>
<g>
	<path class="st0" d="M261.3,437.9c2.6-16.1,0.2-34,1-51s-0.9-35,0-52s-1.7-35.2,0-52s-3.6-34.7,0-51c-6,14.6,1.1,34.6-1,51
		s1.1,35.2,0,52s0.8,35,0,52S262.2,420.9,261.3,437.9z"/>
</g>
<g>
	<path class="st0" d="M449.3,494.9c-3.8-16.4,1.6-35.1,0-52s0.6-34.9,0-52s-0.1-34.8,0-52s-0.8-34.8,0-52s-2.1-35,0-52
		c-3.9,15.9,0,35-1,52s0.1,34.9,0,52s-0.6,36,0,53s-1.8,35.5,0,52S443.6,480,449.3,494.9z"/>
</g>
<g>
	<path class="st0" d="M487.3,395.9h1c0-32,2-65.8-1-97C487.3,331.2,487.3,363.6,487.3,395.9z"/>
</g>
<g>
	<path class="st0" d="M487.3,463.9c2.1-21.6,1-45.5,1-68h-1C487.3,418.6,487.3,441.2,487.3,463.9z"/>
</g>
<g>
	<path class="st0" d="M312.3,429.9c-2.2,0.2-4.8,0.2-7,0C308,430.5,309.5,430.5,312.3,429.9z"/>
</g>
<g>
	<path class="st0" d="M445.3,555.9c2.3-0.2,7.2-0.8,10-1s8.5,1.4,10,1c3.8-1.5-6-9.5-9.2-12.8s-9.1-9.5-13-13s-8.7-10.2-13.8-12.2
		c-8.7-2.1-19,0.8-28,0s-18.9,0-28,0c-7,0-14,0-21,0c-12.7,0-24.7-0.9-24-15s1.6-25.1-1.7-36.3c-3.3-11.2-16.6-13.4-26.1-9.5
		c-9.5,4-12.5,16.5-11.2,26.8s-1,27.5,0,38s-3.7,25,6.8,31.2c10.5,6.3,23.1,1.7,35.2,2.8s25.6-0.5,38,0s25.5-0.2,38,0
		S432.7,555.9,445.3,555.9z"/>
</g>
<g>
	<path class="st0" d="M487.3,525.9c0.8-6.9,0.7-15.1,0-22C487.3,511.2,487.4,518.6,487.3,525.9z"/>
</g>
<g>
	<path class="st0" d="M352.3,517.9c7,0,14,0,21,0v-1C366.2,516.9,358.6,517.3,352.3,517.9z"/>
</g>
<g>
	<path class="st0" d="M373.3,517.9c9.1,0,19-0.8,28,0s19.3-2.1,28,0c-7.9-3.1-19-0.3-28-1s-18.9,0-28,0
		C373.3,516.9,373.2,517.9,373.3,517.9z"/>
</g>
<g>
	<path class="st0" d="M445.3,555.9c5.4,0,15.1,1.9,20,0c-1.5,0.4-7.2-1.2-10-1S447.6,555.7,445.3,555.9z"/>
</g>
<g>
	<path class="st0" d="M483.3,621.9c-13.8,0.4-27.3-0.2-41,0s-27.3-0.2-41,0s-28.4-0.4-42,0c-13.6,0.4-27.7-0.8-41,0s-28.2-1.7-41,0
		c-5.8,0.8-12.3,0-18.6-0.6c0.2,0,0.4,0.1,0.5,0.1c2.1,0.4,4,1.1,5.8,1.8c2.5,0.1,5,0.1,7.3-0.3c11.2-1.6,24.3,0.7,36,0
		s25.1,0.3,37,0c11.9-0.3,24,0.2,36,0s24,0.1,36,0s25,0.1,37,0s24.1,0.2,36,0c11.9-0.2,24,0.9,35-1
		C511.5,622.7,497.1,621.5,483.3,621.9z"/>
</g>
<g>
	<path class="st1" d="M261.3,437.9c0.9-17-0.8-34,0-51s-1.1-35.2,0-52s-2.1-35.6,0-52s-5-36.4,1-51c0.2-1-0.4-2.7,1-3
		c7.3,12.1,25.6,12,26,28s-0.8,36.2,0,53s-1.5,36,0,53s-3.4,36.3,0,53c1.6,8,8.9,12.4,16,14c2.2,0.2,4.8,0.2,7,0
		c14.3-3.2,17.2-13.9,16-28s0.9-29.8,0-44s1.1-30.1,0-44s2.1-30.8,0-44s5.5-31.1-2-42c-9.8-8.4-22.7-18.6-32.2-26.8
		c-9.6-8.2-24.2-18.6-32.7-26.3c-8.4-7.8-27.3-27.3-36.2-12s-0.9,38.1-2.9,56.1s0.7,39.4,0,58s-0.2,40.4,0,59s-1.2,40,0,58
		s-5,39.5,4.8,54.2C236.7,462.9,260.4,453.1,261.3,437.9z"/>
</g>
<g>
	<path class="st1" d="M449.3,234.9c-2.1,17,0.8,34.8,0,52s0.1,34.8,0,52s-0.6,34.9,0,52s-1.6,35.1,0,52s-3.8,35.6,0,52
		c10.9,13.8,24.7,26.6,38,38c0-2.3,0-4.7,0-7c0.2-7.3,0-14.7,0-22c0-13.3,0-26.7,0-40c0-22.7,0-45.3,0-68c0-32.3,0-64.7,0-97
		c-1.2-10.7,1.6-22.5,0-33s1.6-17.3,9.8-22.2c8.2-4.9,9.7-10.7,18.2-13.8c0,19.5,0,39.6,0,59s0,38.8,0,58s-0.1,39,0,58
		s-0.2,39.4,0,58s-0.4,40.4,0,58c0.4,17.6-4.4,38.5,8.2,49.8c12.6,11.3,16.8,18.9,29.8,28.2c1.8-121.5,1-244.1,1-366
		c-2-20.5,0.6-42.9-1-64c-4.2-22.5-27-4.7-36.3,5.7c-9.4,10.3-26,18.3-35.5,28.5C472.1,213.3,452.7,221,449.3,234.9z"/>
</g>
<g>
	<path class="st1" d="M554.3,232.9c0-20.6,2.7-44.4-1-64C554.9,190,552.3,212.4,554.3,232.9z"/>
</g>
<g>
	<path class="st1" d="M261.3,437.9c2.6-16.1,0.2-34,1-51s-0.9-35,0-52s-1.7-35.2,0-52s-3.6-34.7,0-51c-6,14.6,1.1,34.6-1,51
		s1.1,35.2,0,52s0.8,35,0,52S262.2,420.9,261.3,437.9z"/>
</g>
<g>
	<path class="st1" d="M449.3,494.9c-3.8-16.4,1.6-35.1,0-52s0.6-34.9,0-52s-0.1-34.8,0-52s-0.8-34.8,0-52s-2.1-35,0-52
		c-3.9,15.9,0,35-1,52s0.1,34.9,0,52s-0.6,36,0,53s-1.8,35.5,0,52S443.6,480,449.3,494.9z"/>
</g>
<g>
	<path class="st1" d="M487.3,395.9h1c0-32,2-65.8-1-97C487.3,331.2,487.3,363.6,487.3,395.9z"/>
</g>
<g>
	<path class="st1" d="M487.3,463.9c2.1-21.6,1-45.5,1-68h-1C487.3,418.6,487.3,441.2,487.3,463.9z"/>
</g>
<g>
	<path class="st1" d="M312.3,429.9c-2.2,0.2-4.8,0.2-7,0C308,430.5,309.5,430.5,312.3,429.9z"/>
</g>
<g>
	<path class="st1" d="M445.3,555.9c2.3-0.2,7.2-0.8,10-1s8.5,1.4,10,1c3.8-1.5-6-9.5-9.2-12.8s-9.1-9.5-13-13s-8.7-10.2-13.8-12.2
		c-8.7-2.1-19,0.8-28,0s-18.9,0-28,0c-7,0-14,0-21,0c-12.7,0-24.7-0.9-24-15s1.6-25.1-1.7-36.3c-3.3-11.2-16.6-13.4-26.1-9.5
		c-9.5,4-12.5,16.5-11.2,26.8s-1,27.5,0,38s-3.7,25,6.8,31.2c10.5,6.3,23.1,1.7,35.2,2.8s25.6-0.5,38,0s25.5-0.2,38,0
		S432.7,555.9,445.3,555.9z"/>
</g>
<g>
	<path class="st1" d="M506.5,594.6c-9.1-12.2-23.7-11.5-39.2-10.8s-34,0-50,0s-34,0.7-50,0s-34.5,1.9-50,0s-35,4.9-48.8-1.2
		c-13.8-6.1-3.3-31.5-6.2-43.8s3.7-36.3-2.1-47.9c-5.8-11.6-24-15.9-32.2-4.3c-8.2,11.6-6.5,29.3-5.8,44.2c0.7,14.9-2.2,34.8,0,50
		c0.4,2.9,0.4,5.5,0,7.9c0.4,3.5,0.4,7,0.7,10.4c0.1,1,0.2,1.9,0.2,2.9c0.3,1.9,0.5,3.9,1,5.7c0.1,0.4,0.2,0.9,0.3,1.3
		c0,0.1,0.1,0.1,0.1,0.2c1.3,1.8,2.4,3.7,3.7,5.5c0.1,0.1,0.2,0.3,0.3,0.4c0.1,0.1,0.1,0.1,0.2,0.2c0.1,0.1,0.1,0.1,0.2,0.2
		c1.1,0.6,2.8,1.2,3.8,2c0.4,0.1,0.8,0.3,1.3,0.4c2.2,0.6,4.4,1,6.5,1.5c0.4,0,0.8,0.1,1.2,0.1c5.7,0.5,11.3,0.6,16.9,1.7
		c6.4,0.6,12.9,1.4,18.7,0.6c12.8-1.7,27.7,0.8,41,0s27.4,0.4,41,0c13.6-0.4,28.3,0.2,42,0s27.3,0.2,41,0s27.2,0.4,41,0
		s28.2,0.8,42,0c1.9-0.4,4.9,0.9,6-1C523.1,609.1,515.6,606.9,506.5,594.6z"/>
</g>
<g>
	<path class="st1" d="M487.3,525.9c0.8-6.9,0.7-15.1,0-22C487.3,511.2,487.4,518.6,487.3,525.9z"/>
</g>
<g>
	<path class="st1" d="M352.3,517.9c7,0,14,0,21,0v-1C366.2,516.9,358.6,517.3,352.3,517.9z"/>
</g>
<g>
	<path class="st1" d="M373.3,517.9c9.1,0,19-0.8,28,0s19.3-2.1,28,0c-7.9-3.1-19-0.3-28-1s-18.9,0-28,0
		C373.3,516.9,373.2,517.9,373.3,517.9z"/>
</g>
<g>
	<path class="st1" d="M445.3,555.9c5.4,0,15.1,1.9,20,0c-1.5,0.4-7.2-1.2-10-1S447.6,555.7,445.3,555.9z"/>
</g>
<g>
	<path class="st1" d="M483.3,621.9c-13.8,0.4-27.3-0.2-41,0s-27.3-0.2-41,0s-28.4-0.4-42,0c-13.6,0.4-27.7-0.8-41,0s-28.2-1.7-41,0
		c-5.8,0.8-12.3,0-18.6-0.6c0.2,0,0.4,0.1,0.5,0.1c2.1,0.4,4,1.1,5.8,1.8c2.5,0.1,5,0.1,7.3-0.3c11.2-1.6,24.3,0.7,36,0
		s25.1,0.3,37,0c11.9-0.3,24,0.2,36,0s24,0.1,36,0s25,0.1,37,0s24.1,0.2,36,0c11.9-0.2,24,0.9,35-1
		C511.5,622.7,497.1,621.5,483.3,621.9z"/>
</g>
</svg>
