<?xml version="1.0" encoding="utf-8"?>
<!-- Generator: Adobe Illustrator 27.1.0, SVG Export Plug-In . SVG Version: 6.00 Build 0)  -->
<svg version="1.1" id="Capa_1" xmlns:v="https://svgstorm.com"
	 xmlns="http://www.w3.org/2000/svg" xmlns:xlink="http://www.w3.org/1999/xlink" x="0px" y="0px" viewBox="0 0 785.1 785.1"
	 style="enable-background:new 0 0 785.1 785.1;" xml:space="preserve">
<style type="text/css">
	.st0{fill:#1C4566;}
	.st1{fill:none;stroke:#1C4566;stroke-width:0.3;}
	.st2{fill:none;stroke:#98A6B1;stroke-width:0.3;}
	.st3{fill:none;stroke:#0F2F4A;stroke-width:0.3;}
	.st4{fill:none;stroke:#7C96AA;stroke-width:0.3;}
	.st5{fill:none;stroke:#36536A;stroke-width:0.3;}
	.st6{fill:none;stroke:#FCFCFC;stroke-width:0.3;}
	.st7{fill:none;stroke:#85909B;stroke-width:0.3;}
	.st8{fill:none;stroke:#9BA8B5;stroke-width:0.3;}
	.st9{fill:none;stroke:#8F9DAC;stroke-width:0.3;}
	.st10{fill:none;stroke:#5C5D61;stroke-width:0.3;}
	.st11{fill:none;stroke:#FAFBFB;stroke-width:0.3;}
	.st12{fill:none;stroke:#517495;stroke-width:0.3;}
	.st13{fill:none;stroke:#6E727A;stroke-width:0.3;}
	.st14{fill:none;stroke:#859EB4;stroke-width:0.3;}
	.st15{fill:none;stroke:#818D9A;stroke-width:0.3;}
	.st16{fill:none;stroke:#FBFBFC;stroke-width:0.3;}
	.st17{fill:none;stroke:#FBFCFC;stroke-width:0.3;}
	.st18{fill:none;stroke:#6A7E96;stroke-width:0.3;}
	.st19{fill:none;stroke:#76828E;stroke-width:0.3;}
	.st20{fill:none;stroke:#99A2AD;stroke-width:0.3;}
	.st21{fill:none;stroke:#8C99A2;stroke-width:0.3;}
	.st22{fill:none;stroke:#050D19;stroke-width:0.3;}
	.st23{fill:none;stroke:#788994;stroke-width:0.3;}
	.st24{fill:none;stroke:#42617D;stroke-width:0.3;}
	.st25{fill:#98A6B1;}
	.st26{fill:#36536A;}
	.st27{fill:#FCFCFC;}
	.st28{fill:#85909B;}
	.st29{fill:#9BA8B5;}
	.st30{fill:#8F9DAC;}
	.st31{fill:#5C5D61;}
	.st32{fill:#FAFBFB;}
	.st33{fill:#0F2F4A;}
	.st34{fill:#6E727A;}
	.st35{fill:#818D9A;}
	.st36{fill:#FBFBFC;}
	.st37{fill:#FBFCFC;}
	.st38{fill:#6A7E96;}
	.st39{fill:#76828E;}
	.st40{fill:#99A2AD;}
	.st41{fill:#8C99A2;}
	.st42{fill:#050D19;}
	.st43{fill:#788994;}
	.st44{fill:#42617D;}
</style>
<ellipse class="st0" cx="391.5" cy="390" rx="374.2" ry="378.3"/>
<g>
	<path class="st1" d="M137.3,117.9c-5.2,5.2-10.8,10.8-16,16c-21.7,25.3-38.9,44.5-55.2,73.8c-16.4,29.3-27.6,57.2-37,91
		c-9.4,33.8-12.5,78.6-11.8,116.2c0.2,1.8,1,4.6,1,7c1,49,18.3,99.9,41,142c11.6,13.7,20,35.3,33.7,50.2
		c13.8,14.9,26.4,30.1,41.3,42.8c-4.3,2.2-1.6,3.9,2.8,7.2c4.3,3.3,7.2-6.3,11.2-3.2c8.2-11.5,18.5-20.3,30.1-29.9
		c11.6-9.7,18.2-18.7,31.7-29.3c13.4-10.6,8.9-32.3,9.2-49.8s-1.5-42.1,2.8-58.2c4.3-16.1,27.7-22.7,37.5-8
		c9.8,14.7,0,39.5,4.8,56.2c2.8-2.9-0.8-9.1,2-12c-0.2,3.9,0.5,9.6,4,11c0.5-4.1,3.5-7.5,3-12c8.9,5.9,5.1,24,18,28
		c-4.8-10.6-7.9-18.3-7-31s-0.3-27.5,0-40s0.3-23.2,10-31c-12.5-4.7-4.8-19.4,6-20c-0.2-3.4-5.4-7.7-7.8-10.2
		c-2.4-2.6-7-9.4-3.2-8.8c-3.4-16.7,1.5-36,0-53s0.8-36.2,0-53s0.4-37,0-53s-18.7-15.9-26-28c-1.4,0.3-0.8,2-1,3
		c-3.6,16.3,1.7,34.2,0,51s0.9,35,0,52s0.8,35,0,52s1.6,34.9-1,51c-0.8,15.2-24.5,25-34.2,10.2c-9.7-14.7-3.6-36.2-4.8-54.2
		s0.2-39.4,0-58s-0.7-40.4,0-59s-2-40.1,0-58s-6-40.7,2.9-56.1c8.9-15.3,27.7,4.2,36.2,12c8.4,7.8,23.1,18.2,32.7,26.3
		c9.6,8.2,22.4,18.4,32.2,26.8c19.7,16.8,34.5,39.5,55.1,55.9c20.6,16.4,37.4,38.5,57.9,54.1c1.9,5.5,0.6,12.8,5,17
		c3.8-23.1,0.7-52.7,1-75c0.3-22.3-5.4-49.1,14.2-62.8s28.8-24.3,46-38s31.6-35.1,53.8-19.2c-0.6-16.1,12.9-4,23-3
		c10.1,1,20.6-5.2,29-10c1.7-3.5,1.7-6.1,1-10c1.9-0.2,6.1-1.5,4-4c-5.2,2.7-8,9.1-14,10c4.4,2.2-5.9,8.5-7,5
		c-2.9,7.1-11.6,4.2-16.7,1.7c-5.1-2.5-11.2-7.9-12.3-13.7c-1.1-5.9,4.1-16.7,7-15c11-10.4,23.6-19,34-30
		c-78.6-61.1-182.5-83.6-282-67c10.9,16.1,13.7,33.6,20.1,51.9c6.4,18.4,11.8,33.7,18,53c6.2,19.3,12.4,31.6,18,53.1
		c5.6,21.5-29.7,26.1-34,5c-4.4-21.1-13-33.2-19.1-51.9c-6-18.7-14.3-32.8-20.1-50.8c-5.8-18-18.7-33-16.8-52.2
		C233.2,46.4,183.1,78.7,137.3,117.9 M72.3,317.9c14.4,2.3,31.5,10.3,46.2,11.8c14.7,1.5,33.1,10.5,46.9,11.1
		c13.7,0.6,37.8,12,27.1,27.3c-10.7,15.4-33.7,1.6-48.2,1.8c-14.5,0.2-35.4-5.6-50-8c-14.7-2.4-35,0.3-44.3-13.7
		C40.7,334.2,56.2,315.3,72.3,317.9 M185.3,439.9c17.3,4.3,7.7,30.8-7.2,31.8c-14.9,1-29.5,9.4-44,13c-14.6,3.6-29.9,7-43.9,13.1
		c-14,6.1-34.4,4.3-33.9-14.9s19.4-20.3,34-23c14.6-2.7,31-10,46-11C151.3,447.9,170,436.1,185.3,439.9z"/>
</g>
<g>
	<path class="st2" d="M623.3,119.9c0.5-0.3,1.7-0.7,2-1c1.8-2.1,4.9-7.3,8-7C629.7,110.7,626.1,117,623.3,119.9z"/>
</g>
<g>
	<path class="st3" d="M625.3,118.9c-2.6,3-5,4.9-8,7c-9.2,9.1-15.5,19.9-29,23s-25.3-16.2-15-28c-2.8-1.7-8.1,9.1-7,15
		c1.1,5.8,7.2,11.2,12.3,13.7c5.1,2.5,13.8,5.4,16.7-1.7c1.1,3.5,11.4-2.8,7-5c6-0.9,8.8-7.3,14-10c2.1,2.5-2.1,3.8-4,4
		c0.7,3.9,0.7,6.5-1,10c-8.3,4.8-18.8,11-29,10c-10.2-1-23.6-13.1-23,3c-22.1-15.9-36.6,5.5-53.8,19.2s-26.3,24.4-46,38
		s-13.9,40.5-14.2,62.8c-0.3,22.3,2.8,51.9-1,75c-4.4-4.2-3.1-11.5-5-17c-20.5-15.6-37.3-37.7-57.9-54.1
		c-20.6-16.4-35.4-39.1-55.1-55.9c7.5,10.9-0.1,28.8,2,42s-1.1,30.1,0,44s-0.9,29.8,0,44s-1.2,29.9,0,44s-1.7,24.8-16,28
		c-2.7,0.6-4.3,0.6-7,0c-7.1-1.6-14.4-6-16-14c-3.7-0.6,0.9,6.2,3.2,8.8c2.3,2.6,7.5,6.9,7.8,10.2c-10.8,0.6-18.5,15.3-6,20
		c-9.7,7.8-9.7,18.5-10,31s0.9,27.3,0,40s2.2,20.4,7,31c-12.9-4-9.1-22.1-18-28c0.5,4.5-2.5,7.9-3,12c-3.5-1.4-4.2-7.1-4-11
		c-2.8,2.9,0.8,9.1-2,12c-4.8-16.8,5-41.5-4.8-56.2c-9.8-14.7-33.2-8.1-37.5,8c-4.3,16.1-2.4,40.8-2.8,58.2s4.2,39.1-9.2,49.8
		c-13.4,10.6-20.1,19.7-31.7,29.3c-11.6,9.7-21.9,18.4-30.1,29.9c-4-3-6.9,6.5-11.2,3.2c-4.3-3.3-7.1-5.1-2.8-7.2
		c-14.9-12.7-27.5-27.8-41.3-42.8c-13.8-14.9-22.2-36.6-33.7-50.2c19.1,35.4,42.2,71.9,74,99c2.1,1.8,4.7,3.5,6,6
		c4.9-1.3,7.5-7.8,12-9c8.8-8.8,17.1-15,26.2-23.8c9.1-8.7,16.4-14.8,26.5-23.5c10.1-8.7,20.4-16.6,18.2-31.8s0.8-35,0-50
		s-2.4-32.7,5.8-44.2c8.2-11.6,26.4-7.3,32.2,4.3c5.8,11.6-0.9,35.6,2.1,47.9s-7.6,37.7,6.2,43.8c13.8,6.1,33.3-0.6,48.8,1.2
		s34-0.7,50,0s34,0,50,0s34.5,0.8,50,0s30.1-1.5,39.2,10.8c9.1,12.2,16.6,14.4,24.8,26.2c-1.1,1.9-4.1,0.6-6,1
		c-11,1.9-23.1,0.8-35,1s-24-0.1-36,0s-25-0.1-37,0s-24-0.2-36,0s-24.1-0.3-36,0s-25.3-0.7-37,0s-24.8-1.6-36,0s-25.7-3.5-35,0
		c-7,3.3-11.2,11.8-17.2,16.8c-6,4.9-11.8,12.2-17.8,17.2c-2.3,2.3-4.5,4.9-7,7c-10.1,8.6-18.8,18.7-29,27
		c31.6,29.5,74.5,47.2,114,63c1.6,0.5,3.4,0.6,5,1c45.6,11.3,105.7,17.9,152,10c46.4-7.8,89.8-20.5,128.7-42.3
		c38.9-21.8,66.1-42.4,95.5-75.5s49.7-63.4,66.5-104.5c16.9-41.1,30.2-94.4,30.2-140.8c0-9,0-18,0-27c0-16.2-1.1-32.4-4-48
		c-2-10.5-6.3-22.3-9-33c-2.7-10.7-6.4-21.7-10.2-31.8c-3.8-10.1-8-20-12.5-29.5c-4.5-9.5-9.2-18.9-14.4-27.6
		c-5.2-8.8-10.1-18-16-26c-6-7.9-11.6-16.8-18-24c-6.4-7.2-11.8-17-19.7-22.3c-7.9-5.4-12.4-17.9-21.2-20.8
		C630.2,111.6,627,116.8,625.3,118.9 M553.3,168.9c3.7,19.6,1,43.4,1,64c0,121.9,0.8,244.5-1,366c-12.9-9.3-17.1-17-29.8-28.2
		c-12.6-11.3-7.8-32.1-8.2-49.8s0.2-39.4,0-58s0.1-39,0-58s0-38.8,0-58s0-38.6,0-58s0-39.5,0-59c-8.5,3-10.1,8.8-18.2,13.8
		c-8.2,4.9-11.3,11.7-9.8,22.2c1.6,10.5-1.2,22.3,0,33c3,31.2,1,65,1,97c0,22.5,1.1,46.4-1,68c0,13.3,0,26.7,0,40
		c0.7,6.9,0.8,15.1,0,22c0,2.3,0,4.7,0,7c-13.3-11.4-27.1-24.2-38-38c-5.7-14.9,0.8-34.5-1-51s0.6-35,0-52s-0.1-35.9,0-53
		s-1-35,0-52s-2.9-36.1,1-52c3.5-13.9,22.8-21.5,32.2-31.8c9.4-10.2,26.1-18.2,35.5-28.5C526.3,164.2,549,146.4,553.3,168.9
		 M352.3,517.9c6.3-0.6,14-1,21-1c9.1,0,19-0.7,28,0s20.1-2.1,28,1c5.1,2,9.8,8.7,13.8,12.2s9.7,9.8,13,13s13,11.3,9.2,12.8
		c-4.9,1.9-14.6,0-20,0c-12.6,0-25.5,0.2-38,0s-25.6,0.5-38,0s-25.8,1-38,0s-24.8,3.5-35.2-2.8c-10.5-6.3-5.8-20.8-6.8-31.2
		s1.3-27.7,0-38s1.8-22.8,11.2-26.8c9.5-4,22.8-1.7,26.1,9.5c3.3,11.2,2.4,22.2,1.7,36.3S339.6,517.9,352.3,517.9z"/>
</g>
<g>
	<path class="st4" d="M121.3,133.9c5.2-5.2,10.8-10.8,16-16C131.6,122.7,126.1,128.2,121.3,133.9z"/>
</g>
<g>
	<path class="st5" d="M623.3,119.9c-2.5,1.5-4,4-6,6c3-2.1,5.4-4,8-7C624.9,119.2,623.7,119.6,623.3,119.9z"/>
</g>
<g>
	<path class="st6" d="M261.3,437.9c0.9-17-0.8-34,0-51s-1.1-35.2,0-52s-2.1-35.6,0-52s-5-36.4,1-51c0.2-1-0.4-2.7,1-3
		c7.3,12.1,25.6,12,26,28s-0.8,36.2,0,53s-1.5,36,0,53s-3.4,36.3,0,53c1.6,8,8.9,12.4,16,14c2.2,0.2,4.8,0.2,7,0
		c14.3-3.2,17.2-13.9,16-28s0.9-29.8,0-44s1.1-30.1,0-44s2.1-30.8,0-44s5.5-31.1-2-42c-9.8-8.4-22.7-18.6-32.2-26.8
		c-9.6-8.2-24.2-18.6-32.7-26.3c-8.4-7.8-27.3-27.3-36.2-12c-8.9,15.3-0.9,38.1-2.9,56.1s0.7,39.4,0,58s-0.2,40.4,0,59s-1.2,40,0,58
		s-5,39.5,4.8,54.2C236.7,462.9,260.4,453.1,261.3,437.9z"/>
</g>
<g>
	<path class="st6" d="M449.3,234.9c-2.1,17,0.8,34.8,0,52s0.1,34.8,0,52s-0.6,34.9,0,52s-1.6,35.1,0,52s-3.8,35.6,0,52
		c10.9,13.8,24.7,26.6,38,38c0-2.3,0-4.7,0-7c0.2-7.3,0-14.7,0-22c0-13.3,0-26.7,0-40c0-22.7,0-45.3,0-68c0-32.3,0-64.7,0-97
		c-1.2-10.7,1.6-22.5,0-33c-1.6-10.5,1.6-17.3,9.8-22.2c8.2-4.9,9.7-10.7,18.2-13.8c0,19.5,0,39.6,0,59s0,38.8,0,58s-0.1,39,0,58
		s-0.2,39.4,0,58s-0.4,40.4,0,58s-4.4,38.5,8.2,49.8c12.6,11.3,16.8,18.9,29.8,28.2c1.8-121.5,1-244.1,1-366c-2-20.5,0.6-42.9-1-64
		c-4.2-22.5-27-4.7-36.3,5.7c-9.4,10.3-26,18.3-35.5,28.5C472.1,213.3,452.7,221,449.3,234.9z"/>
</g>
<g>
	<path class="st7" d="M554.3,232.9c0-20.6,2.7-44.4-1-64C554.9,190,552.3,212.4,554.3,232.9z"/>
</g>
<g>
	<path class="st8" d="M261.3,437.9c2.6-16.1,0.2-34,1-51s-0.9-35,0-52s-1.7-35.2,0-52s-3.6-34.7,0-51c-6,14.6,1.1,34.6-1,51
		s1.1,35.2,0,52s0.8,35,0,52S262.2,420.9,261.3,437.9z"/>
</g>
<g>
	<path class="st9" d="M449.3,494.9c-3.8-16.4,1.6-35.1,0-52s0.6-34.9,0-52s-0.1-34.8,0-52s-0.8-34.8,0-52s-2.1-35,0-52
		c-3.9,15.9,0,35-1,52s0.1,34.9,0,52s-0.6,36,0,53s-1.8,35.5,0,52S443.6,480,449.3,494.9z"/>
</g>
<g>
	<path class="st10" d="M487.3,395.9c0,0,1,0,1,0c0-32,2-65.8-1-97C487.3,331.2,487.3,363.6,487.3,395.9z"/>
</g>
<g>
	<path class="st11" d="M72.3,317.9c-16.1-2.6-31.6,16.3-22.3,30.3c9.3,14,29.6,11.3,44.3,13.7c14.7,2.4,35.5,8.1,50,8
		c14.5-0.2,37.6,13.6,48.2-1.8c10.7-15.3-13.4-26.7-27.1-27.3c-13.7-0.6-32.1-9.7-46.9-11.1C103.8,328.2,86.7,320.2,72.3,317.9z"/>
</g>
<g>
	<path class="st12" d="M758.3,401.9c0.8-8.4,0.8-18.5,0-27C758.3,383.9,758.3,392.9,758.3,401.9z"/>
</g>
<g>
	<path class="st13" d="M487.3,463.9c2.1-21.6,1-45.5,1-68c0,0-1,0-1,0C487.3,418.6,487.3,441.2,487.3,463.9z"/>
</g>
<g>
	<path class="st14" d="M18.3,421.9c0-2.4-0.8-5.2-1-7C17.3,417.3,18.1,420.1,18.3,421.9z"/>
</g>
<g>
	<path class="st15" d="M312.3,429.9c-2.2,0.2-4.8,0.2-7,0C308,430.5,309.5,430.5,312.3,429.9z"/>
</g>
<g>
	<path class="st16" d="M185.3,439.9c-15.2-3.8-34,8-49,9c-15,1-31.4,8.3-46,11c-14.6,2.7-33.5,3.7-34,23s19.9,21,33.9,14.9
		c14-6.1,29.3-9.5,43.9-13.1c14.5-3.6,29.1-12,44-13C193,470.7,202.5,444.2,185.3,439.9z"/>
</g>
<g>
	<path class="st17" d="M445.3,555.9c2.3-0.2,7.2-0.8,10-1s8.5,1.4,10,1c3.8-1.5-6-9.5-9.2-12.8s-9.1-9.5-13-13s-8.7-10.2-13.8-12.2
		c-8.7-2.1-19,0.8-28,0s-18.9,0-28,0c-7,0-14,0-21,0c-12.7,0-24.7-0.9-24-15s1.6-25.1-1.7-36.3c-3.3-11.2-16.6-13.4-26.1-9.5
		c-9.5,4-12.5,16.5-11.2,26.8s-1,27.5,0,38s-3.7,25,6.8,31.2c10.5,6.3,23.1,1.7,35.2,2.8s25.6-0.5,38,0s25.5-0.2,38,0
		S432.7,555.9,445.3,555.9z"/>
</g>
<g>
	<path class="st18" d="M487.3,525.9c0.8-6.9,0.7-15.1,0-22C487.3,511.2,487.4,518.6,487.3,525.9z"/>
</g>
<g>
	<path class="st19" d="M352.3,517.9c7,0,14,0,21,0c0,0,0-1,0-1C366.2,516.9,358.6,517.3,352.3,517.9z"/>
</g>
<g>
	<path class="st20" d="M373.3,517.9c9.1,0,19-0.8,28,0s19.3-2.1,28,0c-7.9-3.1-19-0.3-28-1s-18.9,0-28,0
		C373.3,516.9,373.2,517.9,373.3,517.9z"/>
</g>
<g>
	<path class="st21" d="M445.3,555.9c5.4,0,15.1,1.9,20,0c-1.5,0.4-7.2-1.2-10-1S447.6,555.7,445.3,555.9z"/>
</g>
<g>
	<path class="st22" d="M237.3,622.9c9.3-3.5,23.8,1.6,35,0s24.3,0.7,36,0s25.1,0.3,37,0s24,0.2,36,0s24,0.1,36,0s25,0.1,37,0
		s24.1,0.2,36,0s24,0.9,35-1c-13.8,0.8-28.2-0.4-42,0s-27.3-0.2-41,0s-27.3-0.2-41,0s-28.4-0.4-42,0s-27.7-0.8-41,0s-28.2-1.7-41,0
		S248.4,617.7,237.3,622.9z"/>
</g>
<g>
	<path class="st23" d="M195.3,663.9c2.5-2.1,4.7-4.7,7-7C199.8,659,197.6,661.6,195.3,663.9z"/>
</g>
<g>
	<path class="st24" d="M133.3,662.9c1.4,1.4,4.7,7,7,7c3.5-3.5,7.5-6.5,11-10c-4.5,1.2-7.1,7.7-12,9
		C138,666.4,135.4,664.7,133.3,662.9z"/>
</g>
<path class="st0" d="M616.3,132.9c-5.2,2.7-8,9.1-14,10c4.4,2.2-5.9,8.5-7,5c-2.9,7.1-11.6,4.2-16.7,1.7
	c-5.1-2.5-11.2-7.9-12.3-13.7c-1.1-5.9,4.1-16.7,7-15c11-10.4,23.6-19,34-30C529.4,30.4,426.8,7.8,328.1,23.4
	c-8.3,0.6-16.6,2.2-24.8,4.3c-8.3,1.3-16.4,3.5-24.4,6.7c-1.4,0.6-2.8,1.3-4.1,2.2c-51.1,16.1-96.1,45.9-137.5,81.3l-16,16
	c-21.7,25.3-38.9,44.4-55.2,73.8c-16.4,29.3-27.6,57.2-37,91c-9.4,33.8-12.5,78.6-11.8,116.2c0.2,1.8,1,4.6,1,7
	c1,49,18.3,99.9,41,142c11.6,13.7,20,35.3,33.7,50.2c13.8,14.9,26.4,30.1,41.3,42.8c-4.3,2.2-1.6,3.9,2.8,7.2
	c4.3,3.3,7.2-6.3,11.2-3.2c8.2-11.5,18.5-20.3,30.1-29.9c11.6-9.7,18.2-18.7,31.7-29.3c13.4-10.6,8.9-32.3,9.2-49.8
	s-1.5-42.1,2.8-58.2c4.3-16.1,27.7-22.7,37.5-8c9.8,14.7,0,39.5,4.8,56.2c2.8-2.9-0.8-9.1,2-12c-0.2,3.9,0.5,9.6,4,11
	c0.5-4.1,3.5-7.5,3-12c8.9,5.9,5.1,24,18,28c-4.8-10.6-7.9-18.3-7-31s-0.3-27.5,0-40s0.3-23.2,10-31c-12.5-4.7-4.8-19.4,6-20
	c-0.2-3.4-5.4-7.7-7.8-10.2c-2.4-2.6-7-9.4-3.2-8.8c-3.4-16.7,1.5-36,0-53s0.8-36.2,0-53s0.4-37.1,0-53s-18.7-15.9-26-28
	c-1.4,0.3-0.8,2.1-1,3c-3.6,16.3,1.7,34.2,0,51s0.9,35,0,52s0.8,35,0,52s1.6,34.9-1,51c-0.8,15.2-24.5,25-34.2,10.2
	c-9.7-14.7-3.6-36.2-4.8-54.2s0.2-39.4,0-58s-0.7-40.4,0-59s-2-40.1,0-58s-6-40.7,2.9-56.1c8.9-15.3,27.7,4.2,36.2,12
	c8.4,7.8,23.1,18.2,32.7,26.3c9.6,8.2,22.4,18.4,32.2,26.8c19.7,16.8,34.5,39.5,55.1,55.9c20.6,16.4,37.4,38.5,57.9,54.1
	c1.9,5.5,0.6,12.8,5,17c3.8-23.1,0.7-52.7,1-75c0.3-22.3-5.4-49.1,14.2-62.8s28.8-24.3,46-38s31.6-35.1,53.8-19.2
	c-0.6-16.1,12.9-4,23-3c10.1,1,20.6-5.2,29-10c1.7-3.5,1.7-6.2,1-10C614.2,136.7,618.3,135.4,616.3,132.9z M178,471.7
	c-14.9,1-29.5,9.4-44,13c-14.6,3.6-29.9,7-43.9,13.1c-14,6.1-34.4,4.3-33.9-14.9s19.4-20.3,34-23c14.6-2.7,31-10,46-11
	c15-1,33.7-12.8,49-9C202.5,444.2,193,470.7,178,471.7z M192.5,368.1c-10.7,15.4-33.7,1.6-48.2,1.8c-14.5,0.2-35.4-5.6-50-8
	c-14.7-2.4-35,0.3-44.3-13.7c-9.3-14,6.2-32.9,22.3-30.3c14.4,2.3,31.5,10.3,46.2,11.8c14.7,1.5,33.1,10.5,46.9,11.1
	C179,341.4,203.2,352.8,192.5,368.1z"/>
<g>
	<path class="st25" d="M623.3,119.9c0.5-0.3,1.7-0.7,2-1c1.8-2.1,4.9-7.3,8-7C629.7,110.7,626.1,117,623.3,119.9z"/>
</g>
<g>
	<path class="st0" d="M625.3,118.9c-2.6,3-5,4.9-8,7c-9.2,9.1-15.5,19.9-29,23s-25.3-16.2-15-28c-2.8-1.7-8.1,9.1-7,15
		c1.1,5.8,7.2,11.2,12.3,13.7c5.1,2.5,13.8,5.4,16.7-1.7c1.1,3.5,11.4-2.8,7-5c6-0.9,8.8-7.3,14-10c2.1,2.5-2.1,3.8-4,4
		c0.7,3.9,0.7,6.5-1,10c-8.3,4.8-18.8,11-29,10c-10.2-1-23.6-13.1-23,3c-22.1-15.9-36.6,5.5-53.8,19.2s-26.3,24.4-46,38
		s-13.9,40.5-14.2,62.8c-0.3,22.3,2.8,51.9-1,75c-4.4-4.2-3.1-11.5-5-17c-20.5-15.6-37.3-37.7-57.9-54.1
		c-20.6-16.4-35.4-39.1-55.1-55.9c7.5,10.9-0.1,28.8,2,42s-1.1,30.1,0,44s-0.9,29.8,0,44s-1.2,29.9,0,44s-1.7,24.8-16,28
		c-2.7,0.6-4.3,0.6-7,0c-7.1-1.6-14.4-6-16-14c-3.7-0.6,0.9,6.2,3.2,8.8c2.3,2.6,7.5,6.9,7.8,10.2c-10.8,0.6-18.5,15.3-6,20
		c-9.7,7.8-9.7,18.5-10,31s0.9,27.3,0,40s2.2,20.4,7,31c-12.9-4-9.1-22.1-18-28c0.5,4.5-2.5,7.9-3,12c-3.5-1.4-4.2-7.1-4-11
		c-2.8,2.9,0.8,9.1-2,12c-4.8-16.8,5-41.5-4.8-56.2c-9.8-14.7-33.2-8.1-37.5,8c-4.3,16.1-2.4,40.8-2.8,58.2s4.2,39.1-9.2,49.8
		c-13.4,10.6-20.1,19.7-31.7,29.3c-11.6,9.7-21.9,18.4-30.1,29.9c-4-3-6.9,6.5-11.2,3.2c-4.3-3.3-7.1-5.1-2.8-7.2
		c-14.9-12.7-27.5-27.8-41.3-42.8c-13.8-14.9-22.2-36.6-33.7-50.2c19.1,35.4,42.2,71.9,74,99c2.1,1.8,4.7,3.5,6,6
		c4.9-1.3,7.5-7.8,12-9c8.8-8.8,17.1-15,26.2-23.8c9.1-8.7,16.4-14.8,26.5-23.5c10.1-8.7,20.4-16.6,18.2-31.8s0.8-35,0-50
		s-2.4-32.7,5.8-44.2c8.2-11.6,26.4-7.3,32.2,4.3c5.8,11.6-0.9,35.6,2.1,47.9s-7.6,37.7,6.2,43.8c13.8,6.1,33.3-0.6,48.8,1.2
		s34-0.7,50,0s34,0,50,0s34.5,0.8,50,0s30.1-1.5,39.2,10.8c9.1,12.2,16.6,14.4,24.8,26.2c-1.1,1.9-4.1,0.6-6,1
		c-11,1.9-23.1,0.8-35,1s-24-0.1-36,0s-25-0.1-37,0s-24-0.2-36,0s-24.1-0.3-36,0s-25.3-0.7-37,0s-24.8-1.6-36,0s-25.7-3.5-35,0
		c-7,3.3-11.2,11.8-17.2,16.8c-6,4.9-11.8,12.2-17.8,17.2c-2.3,2.3-4.5,4.9-7,7c-10.1,8.6-18.8,18.7-29,27
		c31.6,29.5,74.5,47.2,114,63c1.6,0.5,3.4,0.6,5,1c45.6,11.3,105.7,17.9,152,10c46.4-7.8,89.8-20.5,128.7-42.3
		c38.9-21.8,66.1-42.4,95.5-75.5s49.7-63.4,66.5-104.5c16.9-41.1,30.2-94.4,30.2-140.8c0-9,0-18,0-27c0-16.2-1.1-32.4-4-48
		c-2-10.5-6.3-22.3-9-33c-2.7-10.7-6.4-21.7-10.2-31.8c-3.8-10.1-8-20-12.5-29.5c-4.5-9.5-9.2-18.9-14.4-27.6
		c-5.2-8.8-10.1-18-16-26c-6-7.9-11.6-16.8-18-24c-6.4-7.2-11.8-17-19.7-22.3c-7.9-5.4-12.4-17.9-21.2-20.8
		C630.2,111.6,627,116.8,625.3,118.9 M553.3,168.9c3.7,19.6,1,43.4,1,64c0,121.9,0.8,244.5-1,366c-12.9-9.3-17.1-17-29.8-28.2
		c-12.6-11.3-7.8-32.1-8.2-49.8s0.2-39.4,0-58s0.1-39,0-58s0-38.8,0-58s0-38.6,0-58s0-39.5,0-59c-8.5,3-10.1,8.8-18.2,13.8
		c-8.2,4.9-11.3,11.7-9.8,22.2c1.6,10.5-1.2,22.3,0,33c3,31.2,1,65,1,97c0,22.5,1.1,46.4-1,68c0,13.3,0,26.7,0,40
		c0.7,6.9,0.8,15.1,0,22c0,2.3,0,4.7,0,7c-13.3-11.4-27.1-24.2-38-38c-5.7-14.9,0.8-34.5-1-51s0.6-35,0-52s-0.1-35.9,0-53
		s-1-35,0-52s-2.9-36.1,1-52c3.5-13.9,22.8-21.5,32.2-31.8c9.4-10.2,26.1-18.2,35.5-28.5C526.3,164.2,549,146.4,553.3,168.9
		 M352.3,517.9c6.3-0.6,14-1,21-1c9.1,0,19-0.7,28,0s20.1-2.1,28,1c5.1,2,9.8,8.7,13.8,12.2s9.7,9.8,13,13s13,11.3,9.2,12.8
		c-4.9,1.9-14.6,0-20,0c-12.6,0-25.5,0.2-38,0s-25.6,0.5-38,0s-25.8,1-38,0s-24.8,3.5-35.2-2.8c-10.5-6.3-5.8-20.8-6.8-31.2
		s1.3-27.7,0-38s1.8-22.8,11.2-26.8c9.5-4,22.8-1.7,26.1,9.5c3.3,11.2,2.4,22.2,1.7,36.3S339.6,517.9,352.3,517.9z"/>
</g>
<g>
	<path class="st0" d="M121.3,133.9c5.2-5.2,10.8-10.8,16-16C131.6,122.7,126.1,128.2,121.3,133.9z"/>
</g>
<g>
	<path class="st26" d="M623.3,119.9c-2.5,1.5-4,4-6,6c3-2.1,5.4-4,8-7C624.9,119.2,623.7,119.6,623.3,119.9z"/>
</g>
<g>
	<path class="st27" d="M261.3,437.9c0.9-17-0.8-34,0-51s-1.1-35.2,0-52s-2.1-35.6,0-52s-5-36.4,1-51c0.2-1-0.4-2.7,1-3
		c7.3,12.1,25.6,12,26,28s-0.8,36.2,0,53s-1.5,36,0,53s-3.4,36.3,0,53c1.6,8,8.9,12.4,16,14c2.2,0.2,4.8,0.2,7,0
		c14.3-3.2,17.2-13.9,16-28s0.9-29.8,0-44s1.1-30.1,0-44s2.1-30.8,0-44s5.5-31.1-2-42c-9.8-8.4-22.7-18.6-32.2-26.8
		c-9.6-8.2-24.2-18.6-32.7-26.3c-8.4-7.8-27.3-27.3-36.2-12c-8.9,15.3-0.9,38.1-2.9,56.1s0.7,39.4,0,58s-0.2,40.4,0,59s-1.2,40,0,58
		s-5,39.5,4.8,54.2C236.7,462.9,260.4,453.1,261.3,437.9z"/>
</g>
<g>
	<path class="st27" d="M449.3,234.9c-2.1,17,0.8,34.8,0,52s0.1,34.8,0,52s-0.6,34.9,0,52s-1.6,35.1,0,52s-3.8,35.6,0,52
		c10.9,13.8,24.7,26.6,38,38c0-2.3,0-4.7,0-7c0.2-7.3,0-14.7,0-22c0-13.3,0-26.7,0-40c0-22.7,0-45.3,0-68c0-32.3,0-64.7,0-97
		c-1.2-10.7,1.6-22.5,0-33c-1.6-10.5,1.6-17.3,9.8-22.2c8.2-4.9,9.7-10.7,18.2-13.8c0,19.5,0,39.6,0,59s0,38.8,0,58s-0.1,39,0,58
		s-0.2,39.4,0,58s-0.4,40.4,0,58s-4.4,38.5,8.2,49.8c12.6,11.3,16.8,18.9,29.8,28.2c1.8-121.5,1-244.1,1-366c-2-20.5,0.6-42.9-1-64
		c-4.2-22.5-27-4.7-36.3,5.7c-9.4,10.3-26,18.3-35.5,28.5C472.1,213.3,452.7,221,449.3,234.9z"/>
</g>
<g>
	<path class="st28" d="M554.3,232.9c0-20.6,2.7-44.4-1-64C554.9,190,552.3,212.4,554.3,232.9z"/>
</g>
<g>
	<path class="st29" d="M261.3,437.9c2.6-16.1,0.2-34,1-51s-0.9-35,0-52s-1.7-35.2,0-52s-3.6-34.7,0-51c-6,14.6,1.1,34.6-1,51
		s1.1,35.2,0,52s0.8,35,0,52S262.2,420.9,261.3,437.9z"/>
</g>
<g>
	<path class="st30" d="M449.3,494.9c-3.8-16.4,1.6-35.1,0-52s0.6-34.9,0-52s-0.1-34.8,0-52s-0.8-34.8,0-52s-2.1-35,0-52
		c-3.9,15.9,0,35-1,52s0.1,34.9,0,52s-0.6,36,0,53s-1.8,35.5,0,52S443.6,480,449.3,494.9z"/>
</g>
<g>
	<path class="st31" d="M487.3,395.9c0,0,1,0,1,0c0-32,2-65.8-1-97C487.3,331.2,487.3,363.6,487.3,395.9z"/>
</g>
<g>
	<path class="st32" d="M72.3,317.9c-16.1-2.6-31.6,16.3-22.3,30.3c9.3,14,29.6,11.3,44.3,13.7c14.7,2.4,35.5,8.1,50,8
		c14.5-0.2,37.6,13.6,48.2-1.8c10.7-15.3-13.4-26.7-27.1-27.3c-13.7-0.6-32.1-9.7-46.9-11.1C103.8,328.2,86.7,320.2,72.3,317.9z"/>
</g>
<g>
	<path class="st33" d="M758.3,401.9c0.8-8.4,0.8-18.5,0-27C758.3,383.9,758.3,392.9,758.3,401.9z"/>
</g>
<g>
	<path class="st34" d="M487.3,463.9c2.1-21.6,1-45.5,1-68c0,0-1,0-1,0C487.3,418.6,487.3,441.2,487.3,463.9z"/>
</g>
<g>
	<path class="st0" d="M18.3,421.9c0-2.4-0.8-5.2-1-7C17.3,417.3,18.1,420.1,18.3,421.9z"/>
</g>
<g>
	<path class="st35" d="M312.3,429.9c-2.2,0.2-4.8,0.2-7,0C308,430.5,309.5,430.5,312.3,429.9z"/>
</g>
<g>
	<path class="st36" d="M185.3,439.9c-15.2-3.8-34,8-49,9c-15,1-31.4,8.3-46,11c-14.6,2.7-33.5,3.7-34,23s19.9,21,33.9,14.9
		c14-6.1,29.3-9.5,43.9-13.1c14.5-3.6,29.1-12,44-13C193,470.7,202.5,444.2,185.3,439.9z"/>
</g>
<g>
	<path class="st37" d="M445.3,555.9c2.3-0.2,7.2-0.8,10-1s8.5,1.4,10,1c3.8-1.5-6-9.5-9.2-12.8s-9.1-9.5-13-13s-8.7-10.2-13.8-12.2
		c-8.7-2.1-19,0.8-28,0s-18.9,0-28,0c-7,0-14,0-21,0c-12.7,0-24.7-0.9-24-15s1.6-25.1-1.7-36.3c-3.3-11.2-16.6-13.4-26.1-9.5
		c-9.5,4-12.5,16.5-11.2,26.8s-1,27.5,0,38s-3.7,25,6.8,31.2c10.5,6.3,23.1,1.7,35.2,2.8s25.6-0.5,38,0s25.5-0.2,38,0
		S432.7,555.9,445.3,555.9z"/>
</g>
<g>
	<path class="st27" d="M506.5,594.6c-9.1-12.2-23.7-11.5-39.2-10.8s-34,0-50,0s-34,0.7-50,0s-34.5,1.9-50,0s-35,4.9-48.8-1.2
		c-13.8-6.1-3.3-31.5-6.2-43.8s3.7-36.3-2.1-47.9c-5.8-11.6-24-15.9-32.2-4.3c-8.2,11.6-6.5,29.3-5.8,44.2s-2.2,34.8,0,50
		s-8.2,23-18.2,31.8c-10.1,8.7-17.4,14.8-26.5,23.5c-9.1,8.7-17.4,14.9-26.2,23.8c-1.4,1.4-3,2.8-4.6,4.2c9.9-0.6,19.6,1.6,26.4,9
		c1.2,1.3,2.1,2.6,2.9,3.9c1.2,0.6,2.4,1.1,3.6,1.7c5.1-5,10.2-10.1,15.7-14.8c2.3-2.3,4.5-4.9,7-7c5.9-5.1,11.7-12.3,17.8-17.2
		c6-4.9,10.3-13.5,17.2-16.8c11.2-5.2,27.2,0.7,40-1s27.7,0.8,41,0s27.4,0.4,41,0s28.3,0.2,42,0s27.3,0.2,41,0s27.2,0.4,41,0
		s28.2,0.8,42,0c1.9-0.4,4.9,0.9,6-1C523.1,609.1,515.6,606.9,506.5,594.6z"/>
</g>
<g>
	<path class="st38" d="M487.3,525.9c0.8-6.9,0.7-15.1,0-22C487.3,511.2,487.4,518.6,487.3,525.9z"/>
</g>
<g>
	<path class="st39" d="M352.3,517.9c7,0,14,0,21,0c0,0,0-1,0-1C366.2,516.9,358.6,517.3,352.3,517.9z"/>
</g>
<g>
	<path class="st40" d="M373.3,517.9c9.1,0,19-0.8,28,0s19.3-2.1,28,0c-7.9-3.1-19-0.3-28-1s-18.9,0-28,0
		C373.3,516.9,373.2,517.9,373.3,517.9z"/>
</g>
<g>
	<path class="st41" d="M445.3,555.9c5.4,0,15.1,1.9,20,0c-1.5,0.4-7.2-1.2-10-1S447.6,555.7,445.3,555.9z"/>
</g>
<g>
	<path class="st42" d="M237.3,622.9c9.3-3.5,23.8,1.6,35,0s24.3,0.7,36,0s25.1,0.3,37,0s24,0.2,36,0s24,0.1,36,0s25,0.1,37,0
		s24.1,0.2,36,0s24,0.9,35-1c-13.8,0.8-28.2-0.4-42,0s-27.3-0.2-41,0s-27.3-0.2-41,0s-28.4-0.4-42,0s-27.7-0.8-41,0s-28.2-1.7-41,0
		S248.4,617.7,237.3,622.9z"/>
</g>
<g>
	<path class="st43" d="M195.3,663.9c2.5-2.1,4.7-4.7,7-7C199.8,659,197.6,661.6,195.3,663.9z"/>
</g>
<g>
	<path class="st44" d="M133.3,662.9c1.4,1.4,4.7,7,7,7c3.5-3.5,7.5-6.5,11-10c-4.5,1.2-7.1,7.7-12,9
		C138,666.4,135.4,664.7,133.3,662.9z"/>
</g>
<path class="st0" d="M251.2,620.8c-6.4,0.2-13.1,0.5-17.6-0.6c-1.1-0.3-2.2-0.6-3.2-1c-0.2-0.1-1.1-0.6-1.7-0.9
	c-0.4-0.2-0.8-0.6-1.1-0.8c-0.5-0.6-1.2-1.6-1.4-1.7c-0.2-0.5-0.5-1-0.7-1.4c-0.2-0.8-0.7-2.1-0.7-2.3c-0.4-1.5-0.7-3-1-4.6
	c-0.1-0.5-0.4-2.9-0.5-3.1c-0.8-6.2-1.6-12.5-2.4-18.7c-1.1-8.5-6.8-16.9-16.5-16.5c-8,0.4-17.7,7.3-16.5,16.5
	c0.6,4.3,1,8.9,1.4,13.4c-3.2-1.8-6.3-3.6-9.6-5.3c-1-0.5-2.4,0.4-2.3,1.4c-1.7-1.1-3.4-2.2-5.1-3.2c-7.3-4.6-18.5-1.8-22.6,5.9
	c-0.2,0.4-0.4,0.8-0.5,1.1c-2.3,1.8-4.2,4.3-5.5,7.2c-5.2-0.7-10.8,0.9-14.3,4.6c-0.5,0.6-1,1.2-1.4,1.8c-1.8,0.8-3.4,1.9-4.7,3.3
	c-6.4,7-6.1,16.4,0,23.3c1.1,1.3,2.3,2.5,3.4,3.8c0,0.6,0.1,1.3,0.2,1.9c-0.7,3.6-0.2,7.5,2,10.9c13.6,21.2,32.3,38.9,54.8,50.5
	c7.7,3.9,18.3,2.2,22.6-5.9c0.3-0.6,0.6-1.2,0.8-1.9c5.9,0.1,11.9-2.7,14.7-8.1c1.9-3.6,2.5-7.6,1.8-11.4c0.6-0.7,1.1-1.4,1.5-2.2
	c5.1-0.7,9.9-3.6,12.2-8c1.2-2.2,1.8-4.5,2-6.7c3.9-1.6,7.4-4.6,9.2-8.2c0.8,0,1.7,0,2.5-0.1c8.6-0.3,16.9-7.4,16.5-16.5
	C267.3,628.6,260.4,620.4,251.2,620.8z"/>
<path class="st0" d="M199,306c0.5-8.6-7.9-16.9-16.5-16.5c-4.5,0.2-8.1,1.8-10.9,4.3c0-5.1-0.1-10.1-0.1-15.2
	c-0.1-8.6-7.6-16.9-16.5-16.5c-7.2,0.3-13.5,4.8-15.7,11.4c-2.1-6.6-9-11.8-15.8-11.5c-9.4,0.4-15.9,7.3-16.5,16.5
	c-0.8,11.8-1.8,23.6-2.9,35.2c-1.4-1.4-3.1-2.6-4.9-3.4c-2.9-2.8-6.7-4.5-11-4.3c-3.5,0.2-6.5,1.2-9,2.9c-2.3-5.7-9.5-10.1-15.3-9.9
	c-7.4,0.3-13.8,4.9-15.9,12.1c-7,23.5-10.9,48-12,72.5c-0.5,11,10.1,17.4,19.4,16c0.3,6.2,0.5,12.4,0.6,18.5
	c0.2,9.9-0.1,19.9-0.2,30c-3.4,2.1-6,5.4-7.5,9.6c-3,8.3-4.5,17-4.9,25.8c-0.3,6.2,3.1,11.1,7.9,13.9c2,2.1,4.6,3.8,7.4,4.4
	c0.2,0,0.4,0.1,0.6,0.1c1,4.6,2.2,9.2,3.7,13.8c2.1,6.3,7,10.9,13.7,11.8c6.2,0.8,13.4-2,16.4-7.9c3.3-6.3,6.8-12.5,10.6-18.5
	c0.6,1.1,1.1,2.3,1.7,3.4c2.7,5.1,8.6,8.2,14.2,8.2c6.3,0,10.7-3.4,14.2-8.2c0.5-0.6,0.9-1.3,1.4-2c2.4,1.4,5.1,2.2,8,2.1
	c7.7-0.3,14.3-5.4,16-12.7c0.3,2.6,1.3,5.2,2.9,7.3c1.4,7.6,8.1,14.2,16.2,13.8c9.3-0.4,16-7.3,16.5-16.5c1.4-26.9,1.4-53.8,0-80.7
	C195.6,379.3,196.9,342.6,199,306z"/>
<path class="st0" d="M635.5,113.4c-2.8-5.3-8-8.3-12.9-11.3c-8.3-5.3-16.7-10.5-25-15.8c-7.3-4.6-18.5-1.8-22.6,5.9
	c-1.5,2.8-2.2,5.8-2.1,8.8c-1.5,1-2.8,2.1-4.1,3.3c-7.5,6.7-13.5,18.9-9.3,28.8c0.6,1.3,1.3,2.5,2.1,3.6c-1,3.9-0.7,8.2,1.7,11.9
	c4.6,7.2,14.9,11,22.6,5.9c3.3-2.2,6.6-4.4,10-6.6c14.5,0.8,31.5-0.7,39.1-13.9C638.6,127.7,638.9,119.8,635.5,113.4z"/>
</svg>
